:SAMPLES-PER-SECOND 30
:FULLY-SPECIFIED
:DEGREES
463
root  8.11851 31.8484 -17.3766 11.4484 -31.3228 -3.16652
RightUpLeg  -28.966 -10.7082 -7.92685
RightLeg  30.3885 8.1805 4.08696
RightFoot  -0.263983 -0.000852949 0.00731864
RightToes  -55.1807 -0.349634 -0.383906
Spine  8.09794 -2.58143 -0.812164
Spine1  15.6031 -5.04483 -1.97318
HEad  -12.6678 -39.6744 40.4481
LeftShoulder1  0 -2.42657e-020 -4.95415e-022
LeftArm  5.83938 4.92989 -69.4712
LeftForeArm  50.4672 -64.2743 -21.5565
LeftHand  -0.485275 -12.4097 4.09358
RightShoulder  0 2.42657e-020 1.07489e-018
RightArm  -7.06201 -6.71295 81.2826
RightForeArm  49.3864 42.5275 9.29256
RightHand  -5.14792 18.9085 -29.8546
LeftUpLeg  -35.9514 -4.46527 1.2111
LeftLeg  47.8597 5.34512 5.16539
LeftFoot  -16.0515 -0.298027 -2.11345
LeftToes  11.453 1.33192e-006 1.13262e-007
464
root  7.30068 31.8837 -17.3944 12.2482 -28.059 -3.99721
RightUpLeg  -29.3123 -14.453 -5.64241
RightLeg  33.1229 4.26208 2.38996
RightFoot  -2.22577 -0.0102799 -0.151678
RightToes  -50.5488 -0.307746 -0.36664
Spine  7.89572 -2.99145 -0.271909
Spine1  15.1394 -6.04413 -0.74872
HEad  -15.0238 -40.5749 42.3807
LeftShoulder1  0 -2.42657e-020 -4.95415e-022
LeftArm  8.02185 -0.0116119 -71.2431
LeftForeArm  49.4941 -59.612 -17.5458
LeftHand  -0.379852 -12.7387 3.03357
RightShoulder  0 2.42657e-020 1.07489e-018
RightArm  -7.3124 -9.67461 81.2845
RightForeArm  54.5521 44.9241 10.1075
RightHand  -6.38877 19.7438 -35.2035
LeftUpLeg  -36.5077 0.61121 1.26497
LeftLeg  52.2088 4.08803 4.60319
LeftFoot  -16.2508 -0.256087 -1.79353
LeftToes  8.84669 1.33192e-006 1.13262e-007
465
root  6.70258 31.542 -17.4754 13.0401 -25.8369 -4.50143
RightUpLeg  -32.5136 -14.5743 -4.67067
RightLeg  39.4588 -2.94102 -2.13841
RightFoot  -6.81017 0.00610936 0.480276
RightToes  -38.8928 -0.2097 -0.308783
Spine  7.81613 -3.23627 -0.123903
Spine1  14.8406 -6.61851 -0.388747
HEad  -18.0448 -40.517 44.5319
LeftShoulder1  0 -2.42657e-020 -4.95415e-022
LeftArm  8.36794 -6.34015 -72.7059
LeftForeArm  46.052 -52.7984 -13.4473
LeftHand  -0.117427 -12.8563 0.672634
RightShoulder  0 2.42657e-020 1.07489e-018
RightArm  -9.37451 -7.63678 82.8557
RightForeArm  62.2547 41.9536 9.07303
RightHand  -7.66435 19.6104 -42.0137
LeftUpLeg  -37.9941 2.79952 1.74347
LeftLeg  59.168 2.42835 3.51575
LeftFoot  -10.8947 -0.0869255 -0.911525
LeftToes  -3.09621 1.33192e-006 1.13262e-007
466
root  6.32764 30.6719 -17.7262 14.0719 -26.1398 -4.70708
RightUpLeg  -38.6558 -8.71795 -6.71519
RightLeg  46.1816 -1.09727 -1.04082
RightFoot  -9.5928 -0.00255298 0.347149
RightToes  -39.8118 -0.216982 -0.314057
Spine  8.13659 -2.76793 0.0278122
Spine1  14.9673 -5.59801 -0.515931
HEad  -22.1045 -39.1381 44.5924
LeftShoulder1  0 -2.42657e-020 -4.95415e-022
LeftArm  6.83619 -14.7636 -75.269
LeftForeArm  39.8071 -42.5566 -9.3131
LeftHand  -0.041311 -11.8744 0.0272961
RightShoulder  0 2.42657e-020 1.07489e-018
RightArm  -10.1941 0.277748 81.815
RightForeArm  65.5888 38.689 8.05696
RightHand  -8.45768 19.4007 -46.4263
LeftUpLeg  -39.0466 3.44423 3.00321
LeftLeg  63.1531 1.73734 2.93116
LeftFoot  -13.15 -0.109384 -0.948992
LeftToes  -21.9038 1.33192e-006 1.13262e-007
467
root  6.02133 29.3441 -17.9505 15.4181 -28.7337 -4.74162
RightUpLeg  -47.3017 0.279215 -11.9447
RightLeg  52.6176 0.536124 0.560295
RightFoot  -10.2414 -0.0357554 -0.0214527
RightToes  -43.6722 -0.248463 -0.334913
Spine  9.46254 -2.22385 -0.11153
Spine1  16.328 -4.8953 -0.585102
HEad  -26.437 -36.5562 44.2358
LeftShoulder1  0 -2.42657e-020 -4.95415e-022
LeftArm  2.87298 -24.2266 -76.9714
LeftForeArm  34.6905 -34.3207 -6.905
LeftHand  -0.0089798 -10.2008 -0.269522
RightShoulder  0 2.42657e-020 1.07489e-018
RightArm  -11.1747 13.0589 78.7235
RightForeArm  73.2172 38.5451 7.99073
RightHand  -8.88689 17.5372 -53.1238
LeftUpLeg  -38.672 2.40199 4.49292
LeftLeg  63.32 1.27825 2.16889
LeftFoot  -24.5655 -0.300447 -1.37992
LeftToes  -19.9894 1.33192e-006 1.13262e-007
468
root  5.77683 28.0236 -18.1424 16.5781 -30.4829 -3.10521
RightUpLeg  -56.2367 5.21 -19.8042
RightLeg  57.4685 -2.64461 -3.67895
RightFoot  -11.6151 0.0710398 1.07606
RightToes  -37.7227 -0.200551 -0.3019
Spine  10.3321 -2.31644 -0.647972
Spine1  16.8792 -5.53056 -1.04554
HEad  -28.8744 -35.478 43.365
LeftShoulder1  0 -2.42657e-020 -4.95415e-022
LeftArm  -2.64749 -32.4258 -77.7185
LeftForeArm  36.7206 -29.2267 -5.64812
LeftHand  -0.103459 -9.90439 0.824598
RightShoulder  0 2.42657e-020 1.07489e-018
RightArm  -12.6513 26.9486 72.3647
RightForeArm  78.3464 40.253 8.48356
RightHand  -9.85229 18.0147 -56.7154
LeftUpLeg  -42.2571 0.163891 3.50879
LeftLeg  68.4698 2.43924 5.15052
LeftFoot  -30.7337 -0.916262 -3.33314
LeftToes  -17.1768 1.33192e-006 1.13262e-007
469
root  5.41886 27.0514 -18.1411 15.2283 -30.123 0.676819
RightUpLeg  -60.9803 6.92503 -28.978
RightLeg  60.7452 -4.57765 -7.11015
RightFoot  -13.6598 0.217485 2.19333
RightToes  -29.7601 -0.142272 -0.250295
Spine  11.4794 -3.06422 -1.68429
Spine1  18.7185 -7.5902 -1.89942
HEad  -33.2898 -34.8069 45.6479
LeftShoulder1  0 -2.42657e-020 -4.95415e-022
LeftArm  -5.03502 -40.5524 -76.4399
LeftForeArm  34.6585 -28.516 -5.48561
LeftHand  -0.141248 -8.88528 1.44901
RightShoulder  0 2.42657e-020 1.07489e-018
RightArm  -20.0819 39.9968 60.1951
RightForeArm  81.5191 43.6847 9.58357
RightHand  -9.66199 16.488 -60.1621
LeftUpLeg  -44.8436 -3.17923 1.15186
LeftLeg  73.1467 2.8945 7.65934
LeftFoot  -32.1819 -1.39971 -4.84963
LeftToes  -17.4625 1.33192e-006 1.13262e-007
